<?xml version="1.0" standalone="no"?><svg xmlns="http://www.w3.org/2000/svg" viewBox="0 0 1440 320"><path fill="#22233a" fill-opacity="1" d="M0,160L24,154.7C48,149,96,139,144,165.3C192,192,240,256,288,288C336,320,384,320,432,298.7C480,277,528,235,576,218.7C624,203,672,213,720,234.7C768,256,816,288,864,266.7C912,245,960,171,1008,160C1056,149,1104,203,1152,208C1200,213,1248,171,1296,165.3C1344,160,1392,192,1416,208L1440,224L1440,0L1416,0C1392,0,1344,0,1296,0C1248,0,1200,0,1152,0C1104,0,1056,0,1008,0C960,0,912,0,864,0C816,0,768,0,720,0C672,0,624,0,576,0C528,0,480,0,432,0C384,0,336,0,288,0C240,0,192,0,144,0C96,0,48,0,24,0L0,0Z"></path></svg>